<svg xmlns="http://www.w3.org/2000/svg" width="512" height="512" viewBox="0 0 512 512">
  <g id="Group_18919" data-name="Group 18919" transform="translate(-16868 2318)">
    <rect id="Rectangle_14172" data-name="Rectangle 14172" width="512" height="512" rx="64" transform="translate(16868 -2318)" fill="#fff"/>
    <path id="Path_45467" data-name="Path 45467" d="M218.015,5.743c-12.633.743-22.293,4.459-39.385,14.119l-16.348,8.174-13.376,5.2L137.759,37.7c-4.459,1.486-11.147,8.174-14.862,14.862-2.972,5.945-7.431,11.147-11.147,13.376-4.459,3.716-5.2,5.2-7.431,21.55l-4.459,11.89c-5.2,8.174-5.945,10.4-8.917,26.009a59.3,59.3,0,0,1-3.716,17.091l-2.972,12.633-1.486,21.55c-.743,16.348-.743,30.467.743,43.1.743,6.688,2.229,9.66,4.459,15.605l3.716,9.66,2.229,7.431,4.459,13.376c2.229,7.431,5.2,12.633,13.376,25.266,5.945,8.917,8.917,14.119,11.147,23.779l2.972,8.917V352.03l-.743,28.238-1.486,5.2c-5.2,11.89-5.945,16.348-7.431,23.779-.743,9.66-.743,10.4-5.2,17.835l-7.431,13.376c-5.2,9.66-9.66,15.605-17.835,21.55l-7.431,5.945c-2.229,2.229-2.972,2.972-6.688,2.972-5.2.743-29.724,8.917-32.7,11.147l-6.688,3.716-3.716,2.972-11.147.743C4.743,490.248,4,490.248,4,493.221v1.486l12.633.743h11.89l5.945-3.716,8.917-5.2a128.557,128.557,0,0,1,37.9-10.4c10.4,0,12.633-.743,12.633-2.972s-2.229-2.972-5.945-2.972c-2.972,0-2.972-1.486,0-2.972a69.11,69.11,0,0,0,19.321-19.321l7.431-14.862c6.688-11.89,6.688-11.89,7.431-20.064.743-7.431,1.486-9.66,7.431-25.266l1.486-5.945V318.591l-2.972-8.917a140.865,140.865,0,0,0-11.89-23.779c-3.716-3.716-10.4-17.091-12.633-23.036a309.872,309.872,0,0,0-10.4-30.467l-3.716-13.376a206.961,206.961,0,0,1-.743-37.155q2.2-17.8,3.716-35.669c2.972-5.945,4.459-11.89,5.945-23.036.743-10.4,2.229-13.376,7.431-22.293l3.716-8.917L111.007,80.8l1.486-5.945,5.945-6.688c5.2-4.459,7.431-6.688,8.917-11.147,3.716-6.688,8.917-12.633,12.633-13.376l9.66-4.459,13.376-5.2A74.407,74.407,0,0,0,178.63,26.55c12.633-7.431,17.835-9.66,25.266-11.89,9.66-2.972,18.578-3.716,54.247-3.716l26.009-.743,11.89,2.972A158.282,158.282,0,0,1,359.2,39.926a209.563,209.563,0,0,0,20.064,14.862c.743.743,2.229,2.972,4.459,3.716a98.833,98.833,0,0,1,39.385,44.586c6.688,14.119,11.147,28.238,11.89,40.871l.743,8.917,3.716,6.688c5.945,8.174,8.917,18.578,9.66,29.724l1.486,12.633c1.486,3.716,1.486,4.459,0,9.66l-1.486,8.174-.743,13.376V244.28l2.972,5.2c5.2,7.431,5.945,10.4,6.688,28.981v19.321l-3.716,7.431c-1.486,2.229-2.972,5.945-2.972,8.174l-4.459,9.66c-2.229,2.972-4.459,6.688-4.459,8.917l-3.715,7.431c-2.972,2.972-7.431,11.89-7.431,13.376l-4.459,6.688c-5.2,6.688-7.431,12.633-8.917,25.266l-.743,7.431-9.66,11.89c-5.945,5.2-11.147,11.147-11.89,13.376-2.229,4.459-5.2,7.431-10.4,10.4a184.288,184.288,0,0,0-20.064,9.66l-5.2,2.229H310.9L300.5,436c-18.578-6.688-21.55-8.917-43.843-29.724l-18.578-16.348c-7.431-4.459-14.862-11.147-28.981-25.266a108.493,108.493,0,0,1-23.036-28.981c-3.716-4.459-4.459-5.945-5.2-14.862,0-5.945-.743-6.688-5.2-14.862-1.486-2.972-2.229-3.716-1.486-14.119V276.977c.743-5.945.743-8.917-1.486-8.917s-2.972,1.486-2.972,5.2l-1.486,7.431v21.55c.743,4.459,1.486,6.688,3.716,9.66,2.972,4.459,3.716,7.431,3.716,14.119,0,5.2.743,7.431,6.688,16.348l6.688,9.66c4.459,5.945,34.926,35.669,43.843,41.614l20.807,18.578c18.578,17.835,26.009,23.036,39.385,27.495l9.66,3.716c4.459,1.486,5.945,1.486,20.807,2.229,13.376,0,16.348.743,17.091,1.486l.743,5.2c0,3.716.743,5.2,2.972,10.4l5.2,7.431,8.174,2.229,11.147,2.229c4.459,1.486,6.688,1.486,23.779,1.486,26.009,0,35.669.743,44.586,3.716,18.578,5.2,28.981,7.431,31.21,5.2s0-3.715-8.917-5.945l-17.091-4.459c-11.89-2.972-16.348-3.716-45.329-4.459a177.605,177.605,0,0,1-43.843-4.459l-3.716-5.945-2.229-8.917.743-3.716,8.917-1.486c7.431-.743,8.174-.743,14.862-4.459l15.605-8.174,7.431-3.716,4.459-6.688,10.4-12.633c13.376-13.376,13.376-13.376,13.376-19.321l4.459-22.293,4.459-5.2,4.459-7.431,8.174-14.862,2.972-5.2c0-2.972,2.229-6.688,5.945-11.147l2.972-7.431,3.716-8.917c.743-2.229,2.972-5.2,2.972-7.431,1.486-4.459,1.486-29.724,0-37.9s-2.229-11.147-5.945-16.348l-3.716-4.459v-8.917l2.229-16.348c2.229-9.66,2.972-11.147.743-17.091l-1.486-10.4-2.229-15.605c-2.972-10.4-2.972-11.147-7.431-17.091-3.716-5.945-5.2-10.4-5.2-17.091,0-8.917-5.2-26.009-12.633-40.128-9.66-20.064-14.862-26.009-40.128-46.073a413.911,413.911,0,0,0-46.073-32.7,147.875,147.875,0,0,0-30.467-9.66L293.811,6.486C289.353,5.743,284.894,5,257.4,5Zm48.3,107.75a260.832,260.832,0,0,0-40.871,7.431c.743,1.486,7.431.743,20.064-.743a264.85,264.85,0,0,1,46.816-3.716h14.862l9.66,2.972,9.66,3.716H384.47l6.688,4.459c10.4,6.688,11.89,7.431,12.633,5.945,1.486-.743.743-2.229-6.688-6.688-10.4-7.431-7.431-6.688-38.641-6.688-27.495,0-27.495,0-34.183-2.229l-11.147-3.716c-4.459-1.486-5.2-1.486-21.55-1.486Zm4.459,23.036-20.064,5.945c-14.862,4.459-22.293,5.945-34.926,6.688s-15.605,1.486-15.605,2.972l14.119.743c15.605-.743,18.578-1.486,43.1-8.174,16.348-5.2,30.467-8.174,36.412-8.174s15.605,2.229,22.293,4.459c9.66,4.459,14.119,5.2,23.036,5.2a361.893,361.893,0,0,1,53.5,2.972l-2.972-2.972c-2.972-1.486-7.431-2.229-40.128-2.972l-20.064-.743-8.174-2.972A66.879,66.879,0,0,0,270.775,136.53Zm-7.431,29.724c-11.89,1.486-27.495,5.2-34.926,8.917-3.716,1.486-6.688,3.716-6.688,4.459,0,1.486,2.972.743,9.66-2.229l14.862-4.459,12.633-2.972a160.51,160.51,0,0,1,40.128-.743L298.27,167l-15.605-.743H263.344Zm107.007,3.716c-8.174,4.459-6.688,7.431,2.229,2.972l4.459-2.229h11.89c14.119.743,15.605.743,22.293,6.688l6.688,5.945c2.972,1.486,5.945,2.229,5.945.743,0-2.229-13.376-12.633-17.835-14.862-3.716-1.486-5.2-2.229-17.091-2.229H375.553ZM240.308,210.84c-1.486.743-2.972,2.229-4.459,5.2-3.716,8.174-3.716,11.147,2.972,17.091,8.917,8.174,7.431,7.431,22.293,7.431l24.523-.743c13.376-.743,13.376-.743,13.376-8.174,0-5.2,0-5.2-2.229-7.431L282.665,215.3l-11.89-5.945H256.656C244.766,209.354,242.537,209.354,240.308,210.84Zm14.862,6.688-.743,9.66c0,8.917-.743,9.66-5.945,5.945s-8.917-8.174-8.917-10.4,2.972-7.431,4.459-7.431l6.688-.743,5.2.743Zm145.649.743c-16.348,2.972-18.578,3.716-20.807,5.945-3.716,2.972-4.459,5.2-4.459,11.147s0,5.945,2.229,6.688l10.4,1.486,15.605,2.972,11.89,2.972c6.688,0,7.431-.743,8.174-13.376,0-11.89,0-13.376-5.2-16.348C414.938,216.785,409.736,216.785,400.819,218.271Zm-4.459,13.376c.743,6.688.743,6.688-7.431,6.688-7.431-.743-8.917-1.486-7.431-5.2l2.229-4.459c1.486-1.486,7.431-2.972,10.4-2.972C396.36,226.446,396.36,226.446,396.36,231.647ZM361.434,258.4c-1.486,1.486-.743,11.89,0,15.605l2.972,5.945c.743,2.972,3.716,6.688,10.4,13.376,11.89,13.376,11.89,12.633,9.66,17.091l-5.2,9.66c-2.972,4.459-3.716,6.688-3.716,8.917,0,4.459-1.486,4.459-5.945,2.972-5.2-2.229-8.917-1.486-8.917,1.486,0,1.486.743,2.229,4.459,3.716l6.688,2.229c4.459,2.229,8.917-1.486,9.66-8.174,0-2.229,1.486-5.2,3.716-9.66,4.459-6.688,6.688-12.633,6.688-16.348,0-2.229-.743-3.716-2.972-5.945l-10.4-11.147c-8.917-8.917-10.4-12.633-11.89-22.293l-1.486-6.688C365.149,257.656,362.92,256.913,361.434,258.4Zm-52.761,48.3-5.945.743c-2.229,0-2.972.743-5.2,2.229-1.486,2.229-2.229,2.972-2.229,7.431a26.392,26.392,0,0,0,5.945,14.119c2.972,2.972,5.2,4.459,9.66,4.459,4.459.743,8.174,0,8.917-1.486,0-2.229-1.486-3.716-5.2-3.716-4.459,0-8.917-2.972-11.147-6.688l-2.229-6.688c0-2.229,0-2.972,1.486-3.716l3.716-.743,6.688-1.486c3.716-1.486,5.2-3.716,2.229-5.2C313.875,305.215,313.132,305.215,308.673,306.7ZM180.116,353.517c-1.486.743-.743,3.716.743,8.174s1.486,5.945.743,17.835c-.743,12.633-.743,13.376-2.972,17.091-2.229,5.2-2.972,6.688-.743,6.688,1.486,0,2.972-1.486,4.459-5.2,2.972-5.2,3.716-31.21,2.229-38.642C183.089,355.746,180.859,352.03,180.116,353.517Zm109.237,14.119c-4.459,2.229-6.688,5.945-2.972,7.431l5.2-.743,4.459-1.486,11.89,2.972,12.633,3.716H376.3l2.972,2.229c2.229,2.972,2.972,3.716,4.459,2.229,2.229-2.229,0-8.174-4.459-11.147h-5.945a267.518,267.518,0,0,1-54.99,0c-11.89-3.716-21.55-5.945-24.522-5.945l-5.2.743Zm-109.98,69.109c-11.147,2.229-18.578,8.174-25.266,19.321-5.945,9.66-10.4,14.862-14.862,14.862-6.688,1.486-5.2,5.2,2.229,5.2h4.459l5.2-5.2a42.47,42.47,0,0,0,8.174-11.89c5.2-8.917,8.917-11.89,17.091-14.862,6.688-2.972,8.917-4.459,8.174-6.688A5.631,5.631,0,0,0,179.373,436.745Zm115.181,17.091,2.229,5.945c2.972,7.431,8.917,13.376,13.376,13.376,2.972,0,2.972-2.229,0-3.716-4.459-2.229-7.431-5.2-8.917-9.66-2.972-6.688-3.716-6.688-5.2-7.431C295.3,452.35,294.554,452.35,294.554,453.836Zm-70.6,43.1-.743,1.486c0,1.486.743,1.486,5.945,1.486,5.945,0,5.945,0,12.633,2.972,8.917,4.459,8.917,4.459,11.147,8.917l2.972,4.459,10.4.743,8.917-.743,2.229-2.229c2.972-5.2,5.945-8.917,8.174-9.66l8.174-1.486c7.431,0,9.66-.743,7.431-2.972H287.123c-4.459.743-8.174,4.459-11.89,9.66L273,512.541h-5.2l-7.431.743c-2.972,0-2.972,0-4.459-3.715-2.229-4.459-2.972-5.2-5.945-5.945l-4.459-2.972c-3.716-2.972-8.917-4.459-14.862-4.459Z" transform="translate(16887.377 -2323)"/>
  </g>
</svg>
